<svg width="28" height="28" viewBox="0 0 28 28" fill="none" xmlns="http://www.w3.org/2000/svg">
<g clip-path="url(#clip0_32_24)">
<path d="M16.188 0C9.66428 0.000268366 4.37499 5.28824 4.37473 11.812C4.37485 14.764 5.46055 17.4628 7.25082 19.5332L0.257118 26.5061C-0.0845146 26.8473 -0.0860825 27.4006 0.254677 27.7427C0.595715 28.0848 1.15024 28.0859 1.49252 27.7452L8.48867 20.7686C10.5562 22.5474 13.2465 23.625 16.188 23.6252C22.7117 23.6249 27.9997 18.3356 28 11.812C27.9997 5.28824 22.7117 0.00026415 16.188 0ZM16.188 1.74933C21.7452 1.7496 26.2504 6.25477 26.2507 11.812C26.2504 17.3691 21.7452 21.8756 16.188 21.8758C10.6308 21.8756 6.12433 17.3691 6.12407 11.812C6.12433 6.25478 10.6308 1.7496 16.188 1.74933Z" fill="#1A1A1A"/>
</g>
<defs>
<clipPath id="clip0_32_24">
<rect width="28" height="28" fill="white"/>
</clipPath>
</defs>
</svg>
