<svg width="28" height="28" viewBox="0 0 28 28" fill="none" xmlns="http://www.w3.org/2000/svg">
<g clip-path="url(#clip0_39_99)">
<path d="M14 0C21.732 0 28 6.26801 28 14C28 21.732 21.732 28 14 28C6.26801 28 0 21.732 0 14C0 6.26801 6.26801 0 14 0ZM14 1.75C7.23451 1.75 1.75 7.23451 1.75 14C1.75 20.7655 7.23451 26.25 14 26.25C20.7655 26.25 26.25 20.7655 26.25 14C26.25 7.23451 20.7655 1.75 14 1.75ZM14 6C18.4183 6 22 9.58172 22 14C22 18.4183 18.4183 22 14 22C9.58172 22 6 18.4183 6 14C6 9.58172 9.58172 6 14 6Z" fill="#1A1A1A"/>
</g>
<defs>
<clipPath id="clip0_39_99">
<rect width="28" height="28" fill="white"/>
</clipPath>
</defs>
</svg>
