<svg width="28" height="28" viewBox="0 0 28 28" fill="none" xmlns="http://www.w3.org/2000/svg">
<path d="M19.3192 13.9699C22.4145 13.9699 24.9557 16.3555 25.3002 19.4163H27.2991C27.6924 19.4165 27.9998 19.7412 28 20.1272C28 20.5135 27.6926 20.8391 27.2991 20.8393H25.3002C24.9556 23.8999 22.4144 26.2857 19.3192 26.2857C16.2241 26.2856 13.6839 23.8998 13.3393 20.8393H0.700893C0.307434 20.8391 9.00572e-06 20.5135 0 20.1272C0.000226601 19.7412 0.307582 19.4165 0.700893 19.4163H13.3393C13.6838 16.3556 16.224 13.97 19.3192 13.9699ZM18.4922 25.9386C18.6712 25.9651 18.8528 25.9842 19.0368 25.9933L18.7589 25.9721C18.6694 25.9632 18.5805 25.9517 18.4922 25.9386ZM17.6975 25.7612C17.9327 25.832 18.1741 25.8866 18.4208 25.9263C18.1742 25.8866 17.9327 25.832 17.6975 25.7612ZM17.4464 25.6797C17.5065 25.7009 17.5674 25.7196 17.6283 25.7388C17.5674 25.7196 17.5065 25.7009 17.4464 25.6797ZM17.1897 25.5815C17.2469 25.6049 17.3047 25.6269 17.3627 25.6484C17.3047 25.6269 17.2469 25.6049 17.1897 25.5815ZM16.9453 25.4732C17.0124 25.5045 17.08 25.5349 17.1484 25.5636C17.08 25.5349 17.0124 25.5045 16.9453 25.4732ZM16.4888 25.2355C16.5363 25.2631 16.5845 25.2896 16.6328 25.3159C16.5845 25.2896 16.5363 25.2631 16.4888 25.2355ZM16.2533 25.0904C16.3043 25.1235 16.3564 25.1549 16.4085 25.1864C16.3564 25.1549 16.3043 25.1235 16.2533 25.0904ZM20.5446 24.99C20.2312 25.0725 19.9058 25.1244 19.5714 25.1417C19.488 25.1461 19.4037 25.1484 19.3192 25.1484C18.8303 25.1484 18.3585 25.0739 17.9129 24.9375C18.3586 25.0739 18.8303 25.1484 19.3192 25.1484C19.7423 25.1484 20.153 25.0931 20.5446 24.99ZM16.048 24.9509C16.0968 24.9857 16.1465 25.0192 16.1964 25.0525C16.1465 25.0192 16.0968 24.9857 16.048 24.9509ZM15.8359 24.7913C15.8786 24.8247 15.9218 24.8573 15.9654 24.8895C15.9218 24.8573 15.8786 24.8247 15.8359 24.7913ZM19.3192 15.3917C16.7753 15.3919 14.7011 17.5058 14.7009 20.1272C14.7009 22.7489 16.7752 24.8626 19.3192 24.8627C21.8634 24.8627 23.9375 22.749 23.9375 20.1272C23.9373 17.5057 21.8632 15.3917 19.3192 15.3917ZM22.9487 23.5034C22.4739 24.0381 21.8886 24.4687 21.2288 24.7545C21.8886 24.4686 22.4739 24.0382 22.9487 23.5034ZM17.1931 24.654V24.6529V24.654ZM15.6518 24.6406C15.6791 24.6639 15.7066 24.687 15.7344 24.7098C15.7066 24.687 15.6791 24.6639 15.6518 24.6406ZM15.4509 24.4609C15.4801 24.4883 15.5093 24.5157 15.5391 24.5424C15.5093 24.5157 15.4801 24.4883 15.4509 24.4609ZM15.2768 24.2913C15.2974 24.3123 15.3183 24.3331 15.3393 24.3538C15.3183 24.3331 15.2974 24.3123 15.2768 24.2913ZM15.8516 23.6786C16.0178 23.8488 16.1964 24.0062 16.385 24.1507C16.2593 24.0543 16.1384 23.9517 16.0223 23.8438C15.9642 23.7896 15.9071 23.7343 15.8516 23.6775V23.6786ZM15.0904 24.0926C15.1139 24.1189 15.1378 24.1449 15.1618 24.1708C15.1378 24.1449 15.1139 24.1189 15.0904 24.0926ZM14.9174 23.8895C14.943 23.9209 14.9682 23.9525 14.9944 23.9833C14.9682 23.9525 14.943 23.9209 14.9174 23.8895ZM14.7522 23.6775C14.7784 23.7127 14.8046 23.7478 14.8315 23.7824C14.8046 23.7478 14.7784 23.7127 14.7522 23.6775ZM14.5971 23.4587C14.6206 23.4936 14.6443 23.5282 14.6685 23.5625C14.6443 23.5282 14.6206 23.4936 14.5971 23.4587ZM14.4453 23.2221C14.4724 23.2667 14.4997 23.3111 14.5279 23.3549C14.4997 23.3111 14.4724 23.2667 14.4453 23.2221ZM14.3181 23.0011C14.3422 23.045 14.3666 23.0885 14.3917 23.1317C14.3666 23.0886 14.3422 23.045 14.3181 23.0011ZM14.1786 22.731C14.2058 22.7873 14.2334 22.8432 14.2623 22.8984C14.2334 22.8432 14.2058 22.7873 14.1786 22.731ZM24.0692 21.3817C24.0087 21.6224 23.9312 21.8562 23.8382 22.0815C23.7762 22.2316 23.7071 22.3779 23.6317 22.5201V22.5212C23.8206 22.1652 23.9684 21.7831 24.0692 21.3817ZM14.0424 22.4308C14.0754 22.51 14.1111 22.5878 14.1473 22.6652C14.1111 22.5878 14.0754 22.51 14.0424 22.4308ZM13.8326 21.8415C13.8386 21.8616 13.8443 21.8818 13.8504 21.9018C13.8443 21.8818 13.8386 21.8616 13.8326 21.8415ZM24.1663 20.8917L24.1674 20.8929L24.1663 20.8917ZM27.3828 20.5446C27.4073 20.5395 27.4304 20.5306 27.4531 20.5212C27.4304 20.5306 27.4073 20.5395 27.3828 20.5446ZM27.4732 20.5123C27.4874 20.5055 27.5012 20.4983 27.5145 20.49C27.5012 20.4983 27.4874 20.5055 27.4732 20.5123ZM0.481027 20.4877C0.487477 20.4919 0.494434 20.4951 0.501116 20.4989C0.494431 20.4951 0.48748 20.4919 0.481027 20.4877ZM27.6384 20.3717C27.6115 20.4108 27.5781 20.4442 27.5402 20.4721C27.578 20.4441 27.6116 20.4108 27.6384 20.3717ZM0.418527 20.4375C0.427884 20.4465 0.437409 20.4551 0.447545 20.4632C0.4374 20.4551 0.427892 20.4465 0.418527 20.4375ZM0.366071 20.3772C0.375476 20.3905 0.38541 20.4032 0.396205 20.4152C0.385397 20.4032 0.375485 20.3905 0.366071 20.3772ZM0.329241 20.3147C0.335925 20.3286 0.343491 20.3419 0.351563 20.3549C0.343483 20.3419 0.335928 20.3287 0.329241 20.3147ZM27.6496 20.3516C27.6575 20.3385 27.6653 20.3254 27.6719 20.3114C27.6653 20.3254 27.6575 20.3385 27.6496 20.3516ZM0.302455 20.2411C0.305936 20.2539 0.309022 20.2667 0.313616 20.279C0.309025 20.2667 0.30593 20.2539 0.302455 20.2411ZM27.6853 20.279C27.6932 20.2577 27.7008 20.236 27.7054 20.2132C27.7008 20.236 27.6932 20.2577 27.6853 20.279ZM0.285714 20.1272C0.285715 20.1547 0.288665 20.1815 0.293527 20.2076C0.28871 20.1817 0.285715 20.1546 0.285714 20.1272ZM27.6998 20.0257C27.6955 20.0078 27.6917 19.9901 27.6853 19.9732C27.6917 19.9901 27.6955 20.0078 27.6998 20.0257ZM27.6708 19.942C27.6637 19.9272 27.6559 19.9133 27.6473 19.8996C27.6559 19.9133 27.6637 19.9272 27.6708 19.942ZM27.6272 19.8694C27.6194 19.859 27.6114 19.8489 27.6027 19.8393C27.6114 19.8489 27.6194 19.859 27.6272 19.8694ZM27.5815 19.817C27.5705 19.8065 27.5589 19.7971 27.5469 19.7879C27.5589 19.7971 27.5705 19.8065 27.5815 19.817ZM27.5234 19.7701C27.5113 19.7621 27.4984 19.7556 27.4855 19.7489C27.4984 19.7556 27.5113 19.7621 27.5234 19.7701ZM24.1283 19.1395C24.1587 19.2951 24.1816 19.4534 24.1975 19.6138C24.1816 19.4534 24.1587 19.2951 24.1283 19.1395ZM24.8013 18.4007C24.7967 18.3853 24.7916 18.3702 24.7868 18.3549C24.7916 18.3702 24.7967 18.3853 24.8013 18.4007ZM24.6451 17.9498C24.6317 17.9155 24.6189 17.8811 24.6049 17.8471C24.6189 17.8811 24.6317 17.9155 24.6451 17.9498ZM23.385 17.3203H23.3862H23.385ZM24.423 17.4498C24.4096 17.423 24.3966 17.396 24.3828 17.3694C24.3966 17.396 24.4096 17.423 24.423 17.4498ZM24.173 17.0011C24.1495 16.9629 24.1259 16.9249 24.1016 16.8873C24.1259 16.9249 24.1495 16.9629 24.173 17.0011ZM22.5045 16.3114C22.6611 16.4486 22.81 16.5949 22.9487 16.7511C22.81 16.595 22.6612 16.4486 22.5045 16.3114ZM24.0547 16.8159C24.0233 16.7689 23.9914 16.7223 23.9587 16.6763C23.9914 16.7223 24.0233 16.7689 24.0547 16.8159ZM23.875 16.5625C23.8521 16.5318 23.8293 16.5012 23.8058 16.471C23.8293 16.5012 23.8521 16.5318 23.875 16.5625ZM23.5469 16.1618C23.5182 16.1298 23.4891 16.0983 23.4598 16.067C23.4891 16.0983 23.5182 16.1298 23.5469 16.1618ZM23.3728 15.9754C23.3467 15.9487 23.3201 15.9224 23.2935 15.8962C23.3201 15.9224 23.3467 15.9487 23.3728 15.9754ZM21.2277 15.5011C21.3743 15.5646 21.5174 15.6348 21.6563 15.7121C21.5174 15.6348 21.3743 15.5646 21.2277 15.5011ZM23.1551 15.7634C23.141 15.7504 23.127 15.7372 23.1127 15.7243C23.127 15.7372 23.141 15.7504 23.1551 15.7634ZM22.9844 15.6127C22.954 15.5869 22.9237 15.5609 22.8929 15.5357C22.9237 15.5609 22.954 15.5869 22.9844 15.6127ZM22.7924 15.4554C22.7535 15.425 22.7138 15.3955 22.6741 15.3661C22.7138 15.3955 22.7535 15.425 22.7924 15.4554ZM22.5859 15.3013C22.541 15.2694 22.4956 15.2382 22.4498 15.2076C22.4956 15.2382 22.541 15.2694 22.5859 15.3013ZM22.3795 15.1607C22.3269 15.1267 22.2736 15.0937 22.2199 15.0614C22.2736 15.0937 22.3269 15.1267 22.3795 15.1607ZM22.1496 15.0201C22.109 14.9965 22.068 14.9735 22.0268 14.9509C22.068 14.9735 22.109 14.9965 22.1496 15.0201ZM21.9063 14.885C21.8676 14.865 21.8282 14.8462 21.7891 14.827C21.8282 14.8462 21.8676 14.865 21.9063 14.885ZM21.6775 14.7734C21.6291 14.7511 21.5803 14.7297 21.5313 14.7087C21.5803 14.7297 21.6291 14.7511 21.6775 14.7734ZM21.4364 14.6685C21.3911 14.6501 21.345 14.6334 21.2991 14.6161C21.345 14.6334 21.3911 14.6501 21.4364 14.6685ZM21.1808 14.5714C21.1358 14.5556 21.0902 14.5415 21.0446 14.5268C21.0902 14.5415 21.1358 14.5556 21.1808 14.5714ZM20.9375 14.4922C20.8931 14.4788 20.8484 14.4665 20.8036 14.4542C20.8484 14.4665 20.8931 14.4789 20.9375 14.4922ZM19.8996 14.2857C19.8009 14.2756 19.7016 14.2672 19.6016 14.2623C19.7016 14.2672 19.8009 14.2756 19.8996 14.2857ZM8.6808 1.71429C11.7759 1.71443 14.3161 4.10015 14.6607 7.16072H27.2991C27.6926 7.16094 28 7.48651 28 7.87277C27.9998 8.25885 27.6924 8.58348 27.2991 8.58371H14.6607C14.3162 11.6443 11.776 14.03 8.6808 14.0301C5.58544 14.0301 3.04426 11.6445 2.69978 8.58371H0.700893C0.307583 8.58348 0.000226889 8.25885 0 7.87277C4.51137e-06 7.48651 0.307436 7.16094 0.700893 7.16072H2.69978C3.04437 4.10003 5.58553 1.71429 8.6808 1.71429ZM7.85714 13.6842C8.03509 13.7104 8.2156 13.7287 8.39844 13.7377L8.11942 13.7165C8.03139 13.7078 7.94396 13.6969 7.85714 13.6842ZM9.51562 13.683C9.60678 13.6694 9.69712 13.653 9.78683 13.635C9.69713 13.653 9.60677 13.6694 9.51562 13.683ZM7.57478 13.635C7.63355 13.6468 7.69283 13.6564 7.75223 13.6663C7.69283 13.6564 7.63355 13.6468 7.57478 13.635ZM7.06138 13.5067C7.10577 13.5201 7.15049 13.5324 7.19531 13.5446C7.15049 13.5324 7.10577 13.52 7.06138 13.5067ZM6.81808 13.4275C6.8631 13.4433 6.90872 13.4574 6.95424 13.4721C6.90872 13.4574 6.8631 13.4433 6.81808 13.4275ZM6.5625 13.3304C6.60457 13.3475 6.64718 13.3633 6.68973 13.3795C6.64718 13.3633 6.60457 13.3475 6.5625 13.3304ZM6.32143 13.2254C6.36977 13.2478 6.41859 13.2692 6.46763 13.2902C6.41859 13.2692 6.36977 13.2478 6.32143 13.2254ZM6.09263 13.1138C6.13131 13.1339 6.17065 13.1527 6.20982 13.1719C6.17065 13.1527 6.13131 13.1339 6.09263 13.1138ZM5.84933 12.9788C5.88991 13.0024 5.93091 13.0253 5.9721 13.048C5.9309 13.0253 5.88991 13.0024 5.84933 12.9788ZM5.61607 12.8359C5.66975 12.8708 5.72415 12.9045 5.77902 12.9375C5.72415 12.9045 5.66976 12.8708 5.61607 12.8359ZM9.02009 12.8795C8.90793 12.8873 8.79491 12.894 8.6808 12.894C8.7949 12.894 8.90794 12.8873 9.02009 12.8795ZM5.41295 12.6975C5.45633 12.7284 5.50039 12.7583 5.54464 12.7879C5.50039 12.7583 5.45634 12.7284 5.41295 12.6975ZM8.6808 3.13728C6.13659 3.13728 4.0625 5.25098 4.0625 7.87277C4.06273 10.4943 6.13673 12.6083 8.6808 12.6083C11.2247 12.6081 13.2989 10.4942 13.2991 7.87277C13.2991 5.25108 11.2248 3.13744 8.6808 3.13728ZM5.20201 12.5402C5.23149 12.5633 5.26137 12.5858 5.2913 12.6083C5.26137 12.5858 5.23149 12.5632 5.20201 12.5402ZM5.01451 12.3862C5.04123 12.4089 5.06774 12.4319 5.09487 12.4542C5.06774 12.432 5.04123 12.4089 5.01451 12.3862ZM4.83036 12.2232C4.84888 12.2404 4.86742 12.2576 4.88616 12.2746C4.86741 12.2576 4.84889 12.2404 4.83036 12.2232ZM4.62612 12.0234C4.64652 12.0443 4.66679 12.0654 4.6875 12.0859C4.66679 12.0654 4.64653 12.0443 4.62612 12.0234ZM4.45201 11.8371C4.48064 11.8691 4.50975 11.9006 4.53906 11.9319C4.50975 11.9006 4.48065 11.8691 4.45201 11.8371ZM5.38281 11.5893C5.40597 11.6108 5.43068 11.6307 5.45424 11.6518C5.42716 11.6275 5.39932 11.6041 5.37277 11.5792L5.38281 11.5893ZM4.11384 11.423C4.13523 11.4518 4.15667 11.4805 4.17857 11.5089C4.15667 11.4805 4.13524 11.4518 4.11384 11.423ZM3.9442 11.183C3.97557 11.23 4.00752 11.2766 4.04018 11.3225C4.00751 11.2766 3.97558 11.23 3.9442 11.183ZM3.82143 10.99C3.84179 11.0232 3.86183 11.0565 3.88281 11.0893C3.86182 11.0565 3.84179 11.0232 3.82143 10.99ZM3.56362 10.5234C3.58112 10.5588 3.59789 10.5945 3.61607 10.6295C3.59788 10.5945 3.58113 10.5588 3.56362 10.5234ZM3.35379 10.0491C3.36631 10.0812 3.37869 10.1133 3.39174 10.1451C3.37869 10.1133 3.36631 10.0812 3.35379 10.0491ZM4.0413 9.50335C4.06312 9.56846 4.08727 9.63256 4.11161 9.69643C4.08728 9.63256 4.06312 9.56846 4.0413 9.50335ZM3.17411 9.51228C3.18659 9.5563 3.1986 9.60038 3.21205 9.64397C3.1986 9.60038 3.18659 9.55631 3.17411 9.51228ZM3.80246 8.38616C3.81539 8.51645 3.83355 8.64517 3.85603 8.77232C3.8326 8.63975 3.81439 8.50539 3.80134 8.36942L3.80246 8.38616ZM0.545759 8.26563C0.568761 8.27519 0.592327 8.28383 0.617188 8.28906C0.592332 8.28383 0.568779 8.27518 0.545759 8.26563ZM27.3828 8.28906C27.4073 8.2839 27.4304 8.275 27.4531 8.26563C27.4304 8.27499 27.4073 8.2839 27.3828 8.28906ZM0.482143 8.23326C0.496031 8.24214 0.51074 8.24952 0.52567 8.2567C0.510733 8.24953 0.496046 8.24213 0.482143 8.23326ZM27.4732 8.2567C27.4882 8.24955 27.5028 8.24212 27.5167 8.23326C27.5028 8.24211 27.4882 8.24956 27.4732 8.2567ZM0.362723 8.11719C0.389755 8.15645 0.422767 8.19086 0.460938 8.21875C0.422704 8.19088 0.38983 8.15642 0.362723 8.11719ZM27.6362 8.11719C27.6089 8.15645 27.5763 8.19091 27.5379 8.21875C27.5763 8.19089 27.609 8.15648 27.6362 8.11719ZM0.327009 8.0558C0.33353 8.06978 0.341418 8.08291 0.34933 8.09598C0.341387 8.0829 0.333555 8.06978 0.327009 8.0558ZM27.6496 8.09598C27.6575 8.08289 27.6653 8.0698 27.6719 8.0558C27.6653 8.06981 27.6575 8.08288 27.6496 8.09598ZM0.294643 7.95759C0.299157 7.98029 0.305744 8.00221 0.313616 8.02344C0.305713 8.00219 0.299162 7.98032 0.294643 7.95759ZM27.6853 8.02344C27.6932 8.0021 27.7008 7.98042 27.7054 7.95759C27.7008 7.98045 27.6932 8.00208 27.6853 8.02344ZM27.7143 7.87277C27.7143 7.84483 27.7104 7.81775 27.7054 7.7913C27.7103 7.81761 27.7143 7.84497 27.7143 7.87277ZM27.6964 7.75781C27.6929 7.74497 27.6899 7.73219 27.6853 7.71987C27.6899 7.7322 27.6929 7.74496 27.6964 7.75781ZM27.6696 7.68415C27.6629 7.67025 27.6554 7.65697 27.6473 7.64397C27.6555 7.65697 27.6629 7.67024 27.6696 7.68415ZM27.6272 7.61384C27.6194 7.60343 27.6114 7.59333 27.6027 7.58371C27.6114 7.59332 27.6194 7.60343 27.6272 7.61384ZM27.5815 7.56139C27.5719 7.55224 27.5617 7.54391 27.5513 7.53572C27.5617 7.5439 27.5719 7.55225 27.5815 7.56139ZM27.5179 7.51116C27.5114 7.50703 27.5045 7.50377 27.4978 7.5C27.5045 7.50376 27.5114 7.50704 27.5179 7.51116ZM4.16183 5.91853C4.00681 6.29395 3.89567 6.69276 3.83371 7.10826C3.8957 6.69279 4.00679 6.29392 4.16183 5.91853ZM3.07701 6.61719C3.03893 6.79623 3.00833 6.97822 2.98661 7.16295C3.00833 6.97823 3.03894 6.79622 3.07701 6.61719ZM14.3739 7.16295C14.3632 7.0719 14.3507 6.98146 14.3359 6.89174C14.3507 6.98146 14.3632 7.0719 14.3739 7.16295ZM14.2612 6.52009C14.2482 6.46368 14.2355 6.40733 14.221 6.35156C14.2355 6.40733 14.2482 6.46368 14.2612 6.52009ZM3.15513 6.29241C3.19907 6.13096 3.25016 5.97249 3.30692 5.81697C3.25014 5.9725 3.19908 6.13095 3.15513 6.29241ZM14.1987 6.27344C14.1832 6.21735 14.1677 6.16142 14.1507 6.10603C14.1677 6.16142 14.1832 6.21735 14.1987 6.27344ZM14.0893 5.91741C14.082 5.89615 14.0745 5.87495 14.067 5.8538C14.0745 5.87495 14.082 5.89615 14.0893 5.91741ZM14.0179 5.72433C14.0011 5.68061 13.9843 5.63696 13.9665 5.59375C13.9843 5.63696 14.0011 5.68061 14.0179 5.72433ZM13.9353 5.51897C13.9096 5.459 13.8836 5.39932 13.856 5.3404C13.8836 5.39932 13.9096 5.459 13.9353 5.51897ZM3.5 5.34822C3.48995 5.36981 3.4819 5.39233 3.4721 5.41406C3.4819 5.39233 3.48995 5.36981 3.5 5.34822ZM13.8203 5.26674C13.795 5.21456 13.7689 5.1629 13.7422 5.11161C13.7689 5.1629 13.795 5.21456 13.8203 5.26674ZM3.62054 5.10491C3.60598 5.13276 3.59337 5.16162 3.57924 5.18973C3.59337 5.16162 3.60598 5.13276 3.62054 5.10491ZM13.6931 5.01897C13.6655 4.96828 13.6372 4.91806 13.6083 4.8683C13.6372 4.91806 13.6655 4.96828 13.6931 5.01897ZM3.75781 4.85826C3.74057 4.88772 3.72434 4.91776 3.70759 4.94755C3.72433 4.91776 3.74057 4.88772 3.75781 4.85826ZM13.5536 4.77679C13.536 4.74791 13.518 4.71939 13.5 4.69085C13.518 4.71939 13.536 4.74791 13.5536 4.77679ZM3.89844 4.62947C3.87066 4.67232 3.84478 4.71641 3.81808 4.76005C3.84478 4.71641 3.87066 4.67232 3.89844 4.62947ZM6.77121 3.24554C6.25799 3.46786 5.79024 3.77812 5.38393 4.15625C5.79021 3.77818 6.25804 3.46783 6.77121 3.24554ZM4.05022 4.40848C4.01436 4.45866 3.97853 4.50891 3.9442 4.56027C3.97852 4.5089 4.01436 4.45866 4.05022 4.40848ZM13.4107 4.55246C13.3982 4.53377 13.3855 4.51519 13.3728 4.49665C13.3855 4.51519 13.3982 4.53377 13.4107 4.55246ZM4.19196 4.2154C4.16698 4.24751 4.14376 4.28097 4.11942 4.31362C4.14375 4.28097 4.16698 4.24751 4.19196 4.2154ZM12.9565 3.95871C12.9157 3.91207 12.8736 3.86671 12.8315 3.82143C12.8736 3.86671 12.9157 3.91207 12.9565 3.95871ZM4.37165 3.99777C4.34482 4.02902 4.3186 4.0608 4.29241 4.09264C4.3186 4.06079 4.34482 4.02903 4.37165 3.99777ZM4.53348 3.81585C4.51407 3.83665 4.49568 3.85838 4.47656 3.87947C4.49567 3.85838 4.51407 3.83665 4.53348 3.81585ZM4.70982 3.63505C4.68543 3.65901 4.66237 3.68431 4.63839 3.70871C4.66237 3.6843 4.68543 3.65902 4.70982 3.63505ZM4.89955 3.45759C4.87448 3.48012 4.84946 3.5027 4.82478 3.52567C4.84946 3.5027 4.87448 3.48012 4.89955 3.45759ZM11.9989 3.08259C12.1206 3.17115 12.2383 3.26495 12.3527 3.36272C12.2383 3.26494 12.1206 3.17116 11.9989 3.08259ZM5.10603 3.28014C5.07678 3.30404 5.04775 3.32821 5.01897 3.35268C5.04775 3.32821 5.07678 3.30404 5.10603 3.28014ZM5.33929 3.10045C5.29497 3.13303 5.25094 3.16595 5.20759 3.19978C5.25094 3.16594 5.29498 3.13303 5.33929 3.10045ZM8.42857 2.85714C8.09414 2.87447 7.76882 2.92748 7.45536 3.01005C7.76877 2.92748 8.0942 2.87561 8.42857 2.85826C8.51203 2.85393 8.59629 2.85156 8.6808 2.85156C8.59623 2.85156 8.5121 2.85281 8.42857 2.85714ZM5.52232 2.97098C5.48771 2.99441 5.45261 3.01712 5.41853 3.0413C5.45261 3.01712 5.48771 2.99441 5.52232 2.97098ZM11.8951 3.01005C11.8588 2.98485 11.8226 2.95963 11.7857 2.93527C11.8226 2.95963 11.8588 2.98485 11.8951 3.01005ZM11.7176 2.89174C11.6667 2.85911 11.6156 2.82678 11.5636 2.79576C11.6156 2.82678 11.6667 2.85911 11.7176 2.89174ZM5.72768 2.83817C5.7035 2.85307 5.67908 2.86756 5.65513 2.88281C5.67908 2.86756 5.7035 2.85307 5.72768 2.83817ZM5.96987 2.69755C5.93674 2.71578 5.90327 2.73336 5.87054 2.75223C5.90327 2.73336 5.93674 2.71578 5.96987 2.69755ZM11.4576 2.73438C11.4241 2.71537 11.391 2.69579 11.3571 2.67746C11.391 2.69579 11.4241 2.71538 11.4576 2.73438ZM6.23996 2.55804C6.19511 2.57967 6.15023 2.60111 6.10603 2.62389C6.15023 2.60111 6.19511 2.57967 6.23996 2.55804ZM11.2355 2.61384C11.1931 2.59221 11.1501 2.57192 11.1071 2.55134C11.1501 2.57191 11.1931 2.59222 11.2355 2.61384ZM6.48772 2.44531C6.42707 2.47104 6.3665 2.49678 6.30692 2.52455C6.3665 2.49678 6.42707 2.47104 6.48772 2.44531ZM11.0246 2.51228C10.9721 2.48817 10.9194 2.46449 10.8661 2.44197C10.9194 2.46448 10.9721 2.48818 11.0246 2.51228ZM6.69085 2.36384C6.64797 2.38008 6.60489 2.39569 6.5625 2.41295C6.60489 2.39569 6.64797 2.38008 6.69085 2.36384ZM10.7746 2.40514C10.732 2.38801 10.6893 2.37101 10.6462 2.35491C10.6893 2.37101 10.732 2.38802 10.7746 2.40514ZM6.9308 2.27902C6.89656 2.29024 6.86208 2.30064 6.82813 2.3125C6.86208 2.30064 6.89656 2.29024 6.9308 2.27902ZM10.5134 2.30692C10.4702 2.292 10.4265 2.2784 10.3828 2.26451C10.4265 2.2784 10.4702 2.292 10.5134 2.30692ZM7.31027 2.16853C7.23065 2.18851 7.15193 2.21103 7.07366 2.23438C7.15193 2.21103 7.23065 2.18851 7.31027 2.16853ZM10.2879 2.23438C10.2182 2.21356 10.1478 2.19449 10.077 2.17634C10.1478 2.19449 10.2182 2.21356 10.2879 2.23438ZM10.0435 2.16741C9.97485 2.15026 9.90556 2.13513 9.83594 2.12054C9.90556 2.13512 9.97485 2.15027 10.0435 2.16741ZM9.76786 2.10603C9.7201 2.09664 9.67205 2.08852 9.62388 2.08036C9.67205 2.08852 9.72011 2.09664 9.76786 2.10603ZM7.69308 2.08817C7.65962 2.09412 7.62589 2.09837 7.59263 2.10491C7.62589 2.09837 7.65962 2.09412 7.69308 2.08817ZM8.09598 2.03014C8.16001 2.0235 8.22443 2.01897 8.28906 2.01451C8.22443 2.01898 8.16001 2.0235 8.09598 2.03014ZM9.24107 2.0279C9.32456 2.0362 9.40755 2.04612 9.48996 2.05804C9.31671 2.03297 9.14103 2.01554 8.96317 2.0067L9.24107 2.0279ZM16.7165 25.3616C16.7844 25.3971 16.8535 25.4304 16.923 25.4632C16.8535 25.4304 16.7844 25.3971 16.7165 25.3616ZM13.9799 22.2723C14.0003 22.3254 14.0206 22.3785 14.0424 22.4308C14.0206 22.3785 14.0003 22.3254 13.9799 22.2723ZM13.6875 21.2377C13.6967 21.287 13.7061 21.3362 13.7165 21.385C13.7061 21.3362 13.6967 21.287 13.6875 21.2377ZM13.7266 21.4297C13.7429 21.5035 13.76 21.5769 13.779 21.6496C13.76 21.5769 13.7429 21.5035 13.7266 21.4297ZM20.4241 14.3638C20.3653 14.3521 20.306 14.3425 20.2467 14.3326C20.306 14.3425 20.3653 14.3521 20.4241 14.3638ZM20.1417 14.3147C20.0616 14.3029 19.9807 14.2941 19.8996 14.2857C19.9807 14.2941 20.0616 14.3029 20.1417 14.3147ZM7.33259 13.5815C7.39241 13.5962 7.45285 13.6088 7.51339 13.6217C7.45285 13.6088 7.39241 13.5962 7.33259 13.5815ZM3.13951 6.35156C3.12792 6.39593 3.11773 6.44072 3.10714 6.48549C3.11773 6.44072 3.12792 6.39593 3.13951 6.35156ZM3.40067 5.57366C3.384 5.61374 3.36961 5.65478 3.35379 5.69531C3.36961 5.65478 3.38401 5.61374 3.40067 5.57366ZM13.1172 4.15179C13.08 4.10535 13.0419 4.05975 13.0033 4.01451C13.0419 4.05974 13.08 4.10535 13.1172 4.15179ZM7.5067 2.12389C7.44086 2.13791 7.37525 2.15221 7.31027 2.16853C7.37525 2.15222 7.44086 2.13791 7.5067 2.12389ZM8.09598 2.03014C8.01855 2.03816 7.94145 2.04689 7.86496 2.05804C7.94145 2.04689 8.01855 2.03816 8.09598 2.03014Z" fill="#1A1A1A"/>
</svg>
